<?xml version="1.0" encoding="UTF-8"?>
<svg id="Layer_1" data-name="Layer 1" xmlns="http://www.w3.org/2000/svg" xmlns:xlink="http://www.w3.org/1999/xlink" viewBox="0 0 1080 1080">
  <defs>
    <style>
      .cls-1 {
        fill: url(#linear-gradient);
      }

      .cls-1, .cls-2, .cls-3, .cls-4, .cls-5, .cls-6, .cls-7, .cls-8, .cls-9, .cls-10 {
        stroke-width: 0px;
      }

      .cls-2 {
        fill: url(#linear-gradient-22);
      }

      .cls-3 {
        fill: url(#linear-gradient-24);
      }

      .cls-11 {
        fill: url(#linear-gradient-23);
      }

      .cls-11, .cls-12 {
        stroke: #010101;
        stroke-width: 1.42px;
      }

      .cls-11, .cls-12, .cls-13, .cls-14, .cls-15, .cls-16, .cls-17, .cls-18, .cls-19, .cls-20, .cls-21, .cls-22, .cls-23, .cls-24, .cls-25, .cls-26 {
        stroke-miterlimit: 10;
      }

      .cls-12 {
        fill: url(#linear-gradient-25);
      }

      .cls-13 {
        stroke: url(#linear-gradient-21);
      }

      .cls-13, .cls-14, .cls-15, .cls-16, .cls-17, .cls-18, .cls-19, .cls-20, .cls-21, .cls-22, .cls-23, .cls-24, .cls-25, .cls-26 {
        fill: none;
        stroke-linecap: round;
        stroke-width: 5.67px;
      }

      .cls-14 {
        stroke: url(#linear-gradient-14);
      }

      .cls-15 {
        stroke: url(#linear-gradient-16);
      }

      .cls-16 {
        stroke: url(#linear-gradient-18);
      }

      .cls-17 {
        stroke: url(#linear-gradient-15);
      }

      .cls-18 {
        stroke: url(#linear-gradient-17);
      }

      .cls-19 {
        stroke: url(#linear-gradient-19);
      }

      .cls-20 {
        stroke: url(#linear-gradient-10);
      }

      .cls-21 {
        stroke: url(#linear-gradient-11);
      }

      .cls-22 {
        stroke: url(#linear-gradient-13);
      }

      .cls-23 {
        stroke: url(#linear-gradient-12);
      }

      .cls-24 {
        stroke: url(#linear-gradient-20);
      }

      .cls-4 {
        fill: #575757;
      }

      .cls-5 {
        fill: url(#linear-gradient-4);
      }

      .cls-6 {
        fill: url(#linear-gradient-2);
      }

      .cls-7 {
        fill: url(#linear-gradient-3);
      }

      .cls-8 {
        fill: url(#linear-gradient-7);
      }

      .cls-9 {
        fill: url(#linear-gradient-5);
      }

      .cls-10 {
        fill: url(#linear-gradient-6);
      }

      .cls-25 {
        stroke: url(#linear-gradient-8);
      }

      .cls-26 {
        stroke: url(#linear-gradient-9);
      }

      .cls-27 {
        fill: #188f8b;
        font-family: MontserratRoman-Bold, Montserrat;
        font-size: 58.96px;
        font-variation-settings: 'wght' 700;
        font-weight: 700;
      }
    </style>
    <linearGradient id="linear-gradient" x1="443.38" y1="221.94" x2="628.97" y2="543.38" gradientUnits="userSpaceOnUse">
      <stop offset="0" stop-color="#188f8b"/>
      <stop offset="1" stop-color="#014544"/>
    </linearGradient>
    <linearGradient id="linear-gradient-2" x1="184.96" y1="357.6" x2="371.27" y2="680.3" gradientUnits="userSpaceOnUse">
      <stop offset="0" stop-color="#188f8b"/>
      <stop offset="1" stop-color="#014544"/>
    </linearGradient>
    <linearGradient id="linear-gradient-3" x1="761.2" y1="463" x2="862.54" y2="638.52" xlink:href="#linear-gradient-2"/>
    <linearGradient id="linear-gradient-4" x1="309" y1="168.15" x2="477.97" y2="460.81" xlink:href="#linear-gradient-2"/>
    <linearGradient id="linear-gradient-5" x1="611.13" y1="175.68" x2="764.93" y2="442.07" xlink:href="#linear-gradient-2"/>
    <linearGradient id="linear-gradient-6" x1="170.12" y1="216.25" x2="324.67" y2="483.94" xlink:href="#linear-gradient-2"/>
    <linearGradient id="linear-gradient-7" x1="792.83" y1="283.86" x2="866.99" y2="412.31" xlink:href="#linear-gradient-2"/>
    <linearGradient id="linear-gradient-8" x1="105.57" y1="671.67" x2="368.56" y2="671.67" gradientUnits="userSpaceOnUse">
      <stop offset="0" stop-color="#188f77"/>
      <stop offset="1" stop-color="#014544"/>
    </linearGradient>
    <linearGradient id="linear-gradient-9" x1="256.18" y1="846.79" x2="355.43" y2="674.89" xlink:href="#linear-gradient-8"/>
    <linearGradient id="linear-gradient-10" x1="464.18" y1="878.52" x2="464.18" y2="733.72" xlink:href="#linear-gradient-8"/>
    <linearGradient id="linear-gradient-11" x1="611.59" y1="879.21" x2="611.59" y2="733.9" xlink:href="#linear-gradient-8"/>
    <linearGradient id="linear-gradient-12" x1="884.43" y1="693.42" x2="655.68" y2="825.49" xlink:href="#linear-gradient-8"/>
    <linearGradient id="linear-gradient-13" x1="974.43" y1="673.38" x2="714.2" y2="673.38" xlink:href="#linear-gradient-8"/>
    <linearGradient id="linear-gradient-14" x1="423.89" y1="886.63" x2="452.69" y2="886.63" xlink:href="#linear-gradient-8"/>
    <linearGradient id="linear-gradient-15" x1="146.59" y1="778.43" x2="117.79" y2="778.43" xlink:href="#linear-gradient-8"/>
    <linearGradient id="linear-gradient-16" x1="112.54" y1="633.77" x2="87.6" y2="619.37" xlink:href="#linear-gradient-8"/>
    <linearGradient id="linear-gradient-17" x1="623.8" y1="887.58" x2="652.59" y2="887.58" xlink:href="#linear-gradient-8"/>
    <linearGradient id="linear-gradient-18" x1="927.05" y1="778.2" x2="955.85" y2="778.2" xlink:href="#linear-gradient-8"/>
    <linearGradient id="linear-gradient-19" x1="965.56" y1="629.02" x2="994.36" y2="629.02" xlink:href="#linear-gradient-8"/>
    <linearGradient id="linear-gradient-20" x1="539.24" y1="841.7" x2="539.24" y2="747.12" xlink:href="#linear-gradient-8"/>
    <linearGradient id="linear-gradient-21" x1="524.84" y1="852.2" x2="553.64" y2="852.2" xlink:href="#linear-gradient-8"/>
    <linearGradient id="linear-gradient-22" x1="569.09" y1="615.43" x2="514.31" y2="520.54" xlink:href="#linear-gradient-2"/>
    <linearGradient id="linear-gradient-23" x1="566.61" y1="611.67" x2="516.84" y2="525.47" gradientUnits="userSpaceOnUse">
      <stop offset="0" stop-color="#ad9b53"/>
      <stop offset="1" stop-color="#a5892c"/>
    </linearGradient>
    <linearGradient id="linear-gradient-24" x1="568.99" y1="538.6" x2="510.92" y2="438.02" xlink:href="#linear-gradient-2"/>
    <linearGradient id="linear-gradient-25" x1="566.01" y1="533.43" x2="513.17" y2="441.91" xlink:href="#linear-gradient-23"/>
  </defs>
  <g id="B3KK9x">
    <g>
      <path class="cls-1" d="M601.3,559.36c9.28-22,20.43-43.41,27.51-66.1,30.04-96.24,1.73-176.02-71.32-242.19-18.73-16.96-18.95-16.72-37.93.15-90.85,80.75-106.15,191.4-41.75,302.04,2.09,3.59,4.08,7.23,3.75,12.8-7.75-8.55-15.98-16.71-23.18-25.7-41.36-51.6-68.23-108.31-60.51-176.71,4.68-41.49,21.7-78.16,48.7-109.2,23.01-26.45,49.29-50.03,73.9-75.11,10.39-10.59,19.51-12.81,31.08-.72,29.56,30.88,61.88,59.3,89.59,91.7,54.21,63.4,54.83,133.74,19.81,206.5-14.93,31.01-35.14,58.4-59.64,82.55Z"/>
      <path class="cls-6" d="M500.56,605.66c-52.7-49.23-118.12-60.07-185.76-62.75-42.49-1.68-84.79-3.46-125.09-18.26-15.94-5.85-30.8-14.63-45.5-21.75,16.89,92.64,103.31,147.6,230.36,145.43-44.34,18.87-125.92,16.92-179.44-21.66-71.95-51.87-105.28-124.25-109.5-211.72,35.11,44.78,84.37,55.87,136.78,60.78,40.18,3.76,80.97,5.66,120.17,14.33,65.61,14.51,117.26,51.85,153.89,108.88,1.42,2.21,2.72,4.49,4.08,6.73Z"/>
      <path class="cls-7" d="M583.42,600.01c11.29-22.72,28.06-40.73,47-56.79,46.97-39.84,102.37-57.93,162.97-62.52,30.7-2.33,61.53-4.01,92-8.15,41.53-5.64,78.97-20.61,105.77-56.2,2.13,62.15-29.15,149.04-97.76,202.15-57.15,44.24-121.41,48.54-189.04,31.03,51.03,3.95,100.04-2.43,144.52-29.56,45.21-27.58,71.89-68.87,88.58-121.99-50.1,36.35-104.96,40.69-160.38,44.7-36.31,2.63-72.69,7.23-108.41,14.19-31.77,6.19-60.23,21.57-85.26,43.13Z"/>
      <path class="cls-5" d="M412.69,498.5c-36.29-34.42-71.28-70.03-92.23-116.64-22.73-50.56-22.74-101.65-3.34-153.03,14.44-38.24,36.03-72.06,65.06-102.93,32.66,24.47,51.77,57.66,66.12,95.17-16.78-11.17-33.56-22.34-51.33-34.16-33.16,33.79-54.56,72.39-57.91,119.6-4.42,62.29,19.68,115.6,53.65,165.53,6.21,9.13,13.3,17.65,19.98,26.46Z"/>
      <path class="cls-9" d="M672.35,495.52c15.71-28.51,36.9-60.23,51.44-94.75,33.14-78.7,16.75-155.85-42.43-213.79-16.68,10.95-33.69,22.11-50.7,33.27,14.04-36.63,33.01-69.26,64.52-93.1,74.01,75.88,119.15,195.45,30.67,306.57-18.15,22.79-38.13,44.13-53.5,61.81Z"/>
      <path class="cls-10" d="M344.09,472.72c-114.97-15.36-202.99-132.68-187.98-248.39,35.48,1.06,108.89,40.93,126.66,67.6-24.71-7.58-51.05-15.71-77.44-23.68-2.09-.63-4.53-.08-9.18-.09,9.17,97.94,69.1,157.18,147.95,204.55Z"/>
      <path class="cls-8" d="M738.83,470.73c77.84-48.44,135.77-107.22,144.03-203.39-32.76,1.6-59.96,14.55-87.78,25.76,34.64-36.14,77.2-57.23,125.1-69.06,26.92,97.15-73.92,235.44-181.35,246.7Z"/>
    </g>
  </g>
  <g>
    <path class="cls-25" d="M365.72,708.65c-29.58-.05-59.17-.11-88.75-.16-16.39-13.68-32.79-27.36-49.18-41.04-26.77-.05-53.54-.1-80.32-.15-13.02-10.87-26.05-21.74-39.07-32.61"/>
    <path class="cls-26" d="M444.4,729.53c-.03,17.32-.06,34.64-.09,51.95-14.92,10.94-29.85,21.87-44.77,32.81-42.23-.08-84.46-.15-126.69-.23-13.74-11.62-27.47-23.25-41.21-34.87-29.05-.05-58.09-.11-87.14-.16"/>
    <path class="cls-20" d="M486.73,736.55c-.05,26.19-.1,52.38-.14,78.57-12.17,10.08-24.33,20.16-36.5,30.24-2.82,10.11-5.63,20.22-8.45,30.33"/>
    <path class="cls-21" d="M588.34,736.74c-.05,26.68-.1,53.37-.15,80.05,13.83,8.8,27.67,17.6,41.5,26.4,1.76,11.06,3.53,22.13,5.29,33.19"/>
    <path class="cls-23" d="M634.98,726.52c-.03,18.81-.07,37.63-.1,56.44v.08c15.67,10.54,31.33,21.08,47,31.62,41.41.08,82.82.15,124.23.23,12.9-12.34,25.79-24.67,38.69-37.01l85.21.16"/>
    <path class="cls-22" d="M717.03,710.14l86.4.16c15.42-13.88,30.84-27.75,46.26-41.63,27.08.05,54.15.1,81.23.15,13.56-10.79,27.11-21.58,40.67-32.37"/>
    <circle class="cls-14" cx="438.29" cy="886.63" r="11.56"/>
    <circle class="cls-17" cx="132.19" cy="778.43" r="11.56"/>
    <circle class="cls-15" cx="100.07" cy="626.57" r="11.56"/>
    <circle class="cls-18" cx="638.2" cy="887.58" r="11.56"/>
    <circle class="cls-16" cx="941.45" cy="778.2" r="11.56"/>
    <circle class="cls-19" cx="979.96" cy="629.02" r="11.56"/>
    <path class="cls-24" d="M539.32,838.87c-.05-29.64-.11-59.28-.16-88.92"/>
    <circle class="cls-13" cx="539.24" cy="852.2" r="11.56"/>
  </g>
  <rect class="cls-4" x="354.09" y="697.01" width="23.27" height="23.27" transform="translate(11.35 -5.75) rotate(.91)"/>
  <rect class="cls-4" x="705.4" y="698.51" width="23.27" height="23.27" transform="translate(11.42 -11.35) rotate(.91)"/>
  <text class="cls-27" transform="translate(398.28 698.67)"><tspan x="0" y="0">SERAXMI</tspan></text>
  <g>
    <path class="cls-2" d="M594.2,547.85c-1.05-3.82-2.29-7.71-3.7-11.57l-1.21-3.31-3.49.39c-5.46.59-10.89,1.77-16.12,3.5-6.64,2.2-12.93,5.28-18.78,9.18-.93-1.5-2.01-2.9-3.22-4.16-2.41-2.49-5.26-4.43-8.47-5.75l-1.83-.75-1.79.84c-2.05.96-5.06,2.76-7.78,5.88-1.04,1.18-1.96,2.47-2.75,3.85-5.61-3.36-11.62-5.96-17.92-7.73-4.98-1.41-10.12-2.29-15.29-2.63l-3.24-.21-1.22,3.01c-1.78,4.42-3.23,8.93-4.29,13.42-2.08,8.74-2.45,15.94-1.11,21.4.43,1.75.99,3.42,1.69,5.1.17,1.57.43,3.16.77,4.77l.03.13c.59,2.68,1.05,4.8,2.36,7.19,1.16,2.09,2.7,3.93,4.61,5.49.96,2.3,2.14,4.47,3.52,6.45,1.75,2.54,3.73,5.43,7.56,6.94.77.3,1.57.53,2.39.69,1.38,1.67,3.06,3.02,4.94,3.96,1.4.72,2.86,1.19,4.47,1.46l6.99,1.15c2.99,3.24,4.88,5.34,5.62,6.35.96,1.31,1.73,2.44,2.42,3.44,2.29,3.35,4.27,6.24,8.19,6.24h.23c3.67-.13,5.43-2.74,6.99-5.05.57-.84,1.21-1.8,2.06-2.89,1.78-2.32,2.71-3.02,4.95-4.74,1.72-1.31,3.95-3.01,7.38-6.06.34.59.83,1.13,1.52,1.61.84.58,1.83.89,2.87.89,2.22,0,4.2-1.37,6.51-3.43,1-.89,1.9-1.88,2.69-2.97,2.76-.87,5.07-2.24,6.87-4.04.69-.68,1.45-1.56,4.82-6.76.66-1.02,1.23-1.9,1.68-2.61,2.56-2.23,4.56-4.84,5.96-7.77,1.27-2.65,1.78-5.06,2.08-6.5l.02-.09c.35-1.68.58-3.39.68-5.08,1.4-4.4,2.11-8.91,2.11-13.39,0-1.42,0-5.77-2.77-15.84ZM544.13,553.19c-1.31,1.41-2.6,2.7-3.85,3.88,1.88,8.28,3.77,16.56,5.65,24.83-2.72,2.62-5.45,5.24-8.17,7.86-3.05-3.06-6.1-6.12-9.15-9.18,2.21-7.89,4.42-15.78,6.62-23.67-1.17-1.02-2.47-2.3-3.76-3.85-1.04-1.25-1.9-2.47-2.61-3.58.66-1.24,1.77-2.96,3.54-4.65,1.9-1.81,3.83-2.86,5.15-3.46,1.39.54,3.47,1.54,5.57,3.37,2.06,1.79,3.33,3.68,4.06,4.97-.94,1.13-1.95,2.3-3.05,3.48Z"/>
    <path class="cls-11" d="M589.87,549.04c-.84-3.09-2-6.88-3.59-11.22-4.33.47-9.52,1.43-15.19,3.31-9.77,3.24-17.09,7.95-21.95,11.69-.57-1.73-1.84-4.85-4.7-7.82-2.58-2.67-5.32-4.04-6.95-4.72-1.53.72-4.02,2.15-6.31,4.78-2.54,2.9-3.62,5.89-4.1,7.55-4.73-3.32-11.83-7.44-21.16-10.08-5.39-1.52-10.29-2.2-14.37-2.47-2,4.94-3.27,9.31-4.09,12.78-2.78,11.71-1.57,17.42-1.11,19.29.53,2.15,1.2,3.86,1.72,5.03.11,1.18.33,2.91.77,4.96.57,2.61.92,4.26,1.93,6.1.64,1.16,1.91,3.09,4.39,4.85,1.11,2.95,2.45,5.19,3.51,6.71,1.69,2.46,3.02,4.33,5.5,5.31,1.26.5,2.42.6,3.22.61.6.99,1.97,2.95,4.5,4.22,1.19.61,2.3.88,3.16,1.02-1.89-4.31-3.94-9.47-3.02-10.01.57-.34,2.02,1.2,4.88,4.26,8.15,8.75,12.24,13.11,13.64,15.03,3.91,5.33,4.92,7.92,7.08,7.85,1.98-.07,2.61-2.27,5.64-6.2,4.07-5.27,5.17-4.17,15.72-13.97,3.2-2.97,5.59-5.47,6.29-4.97,1.1.77-3.28,7.96-2.04,8.81.76.53,3.19-1.64,3.82-2.21,1.44-1.28,2.34-2.61,2.86-3.51,3.48-.78,5.46-2.27,6.56-3.38.34-.33.93-.96,4.19-5.98.85-1.3,1.54-2.39,2.02-3.15,3.07-2.52,4.59-5.17,5.33-6.71,1.06-2.22,1.49-4.29,1.76-5.58.42-1.99.57-3.71.62-4.97.96-2.9,2.07-7.25,2.07-12.58,0-1.46-.07-5.43-2.61-14.65ZM546.04,582.05c-2.73,2.64-5.44,5.27-8.16,7.91-3.07-3.05-6.13-6.11-9.19-9.17,2.18-7.91,4.36-15.83,6.54-23.74-1.18-1.02-2.48-2.29-3.78-3.84-1.06-1.25-1.92-2.47-2.63-3.58.66-1.24,1.75-2.97,3.52-4.66,1.91-1.83,3.83-2.89,5.15-3.49,1.4.54,3.48,1.54,5.6,3.36,2.07,1.79,3.35,3.67,4.08,4.96-.93,1.14-1.94,2.31-3.04,3.5-1.3,1.42-2.59,2.71-3.84,3.9,1.92,8.29,3.84,16.58,5.75,24.86Z"/>
    <path class="cls-3" d="M491.25,529.77l-1.12-1.8c-2.64-4.23-5.86-11.17-6.24-20.13-.19-4.6.4-9.25,1.74-13.68-.12-.03-.23-.07-.35-.1-.81-.23-1.48-.41-2.03-.56-2.27-.62-5.09-1.38-5.48-4.68-.16-1.44.19-2.59.99-3.55-4.66-3.05-6.34-6.14-4.99-9.19.49-1.13,1.87-3.07,5.43-3.07.16,0,.33,0,.5,0-1.38-2.73-1.74-5.18-2.09-7.55-.54-3.71-1.16-7.9,2.59-9.69.68-.32,1.4-.49,2.15-.49,2.83,0,4.51,2.05,6.63,4.64.9,1.1,1.93,2.35,2.96,3.34,3.09,2.97,7.59,4.84,13.41,5.57,5.74-4.1,16.31-9.93,30.51-10.48.72-.03,1.43-.04,2.14-.04,12.71,0,22.66,4.4,28.34,7.71,2.06-.77,4.07-1.66,5.99-2.65,4.27-2.2,6.21-3.2,7.89-5.19,1.15-1.37,1.79-2.72,2.3-3.8.7-1.49,2.01-4.27,5.27-4.27h.38l.44.07c5.9.99,4.99,10.29,4.75,12.14-.23,1.73-.67,3.43-1.33,5.08.82-.25,1.57-.44,2.42-.44,1.66,0,3.13.76,4.04,2.08,2.69,3.99-1.59,8.25-4.22,10.33.42.57.72,1.27.86,2.12.63,3.66-2.34,5.64-6.21,7.16.21.58.41,1.16.6,1.74,1.78,5.34,2.95,8.87,3.13,13.57.19,5.15-.88,9.09-2.01,13.26-.54,1.98-1.17,3.94-1.9,5.85l1.09,3.45-52.24,9.26-46.35-6.06Z"/>
    <path class="cls-12" d="M582.06,480.38c.07.96,8.42.55,8.65,1.9.17.99-4.13,2.55-7.66,3.68.6,1.43,1.4,3.44,2.22,5.9,1.74,5.22,2.75,8.27,2.9,12.32.16,4.46-.79,7.99-1.85,11.92-.77,2.85-1.64,5.19-2.33,6.87.01.03.02.05.03.08-15.51,2.75-31.01,5.5-46.52,8.25-14.52-1.9-29.03-3.79-43.55-5.69-1.8-2.89-5.2-9.23-5.57-17.95-.32-7.52,1.76-13.35,3.1-16.38-1.11-.37-2.83-.92-4.96-1.53-3.28-.94-4.23-1.06-4.28-1.46-.06-.58,1.89-1.65,11.51-3.78-6.09.37-9.87-1.36-11.86-2.57-1.76-1.07-4.4-3.15-4.01-4.03.25-.57,1.65-.4,3.63-.28,2.18.13,5.22.19,8.96-.08-1.58-.8-4.65-2.64-6.58-6.23-1.19-2.2-1.48-4.19-1.82-6.49-.34-2.32-.68-4.62.08-4.99,1.13-.54,3.58,3.69,6.69,6.68,3.01,2.89,8.22,6.17,17.79,6.98,3.54-2.72,14.02-10.05,29.42-10.63,15.14-.58,26.01,5.7,29.79,8.13,3.63-1.21,6.52-2.55,8.56-3.6,4.53-2.33,7.01-3.6,9.27-6.29,2.9-3.44,3.25-6.62,4.2-6.46,1.01.17,1.47,3.94,1.05,7.14-.68,5.2-3.69,8.97-5.84,11.12,1.26.16,3.18.29,5.46,0,3.78-.49,5.88-1.82,6.26-1.26.42.63-1.63,3.16-4.27,5-4.27,2.98-8.5,3.08-8.45,3.76Z"/>
  </g>
</svg>